<svg xmlns="http://www.w3.org/2000/svg" viewBox="0 0 128 128">
  <defs>
    <linearGradient id="g" x1="0" y1="0" x2="1" y2="1">
      <stop offset="0" stop-color="#0B5FFF"/>
      <stop offset="1" stop-color="#00C2A8"/>
    </linearGradient>
  </defs>
  <rect width="128" height="128" rx="28" fill="url(#g)"/>
  <path fill="rgba(255,255,255,.92)" d="M29 52c0-4 3-7 7-7h56c4 0 7 3 7 7v26c0 4-3 7-7 7H36c-4 0-7-3-7-7V52zm16 28a7 7 0 1 0 0-14 7 7 0 0 0 0 14zm38 0a7 7 0 1 0 0-14 7 7 0 0 0 0 14z"/>
  <path fill="rgba(255,255,255,.92)" d="M43 38h42c7 0 13 6 13 13v2H30v-2c0-7 6-13 13-13z"/>
</svg>

